# xmcd
#
# Track frame offsets: 
#        150
#        23020
#        48865
#        77530
#        103678
#        128909
#        155792
#        181706
#        212944
#        231034
#        267701
#        285859
#
# Disc length: 4136 seconds
#
# Revision: 4
# Processed by: cddbd v1.5.2PL0 Copyright (c) Steve Scherf et al.
# Submitted via: ExactAudioCopy v1.3
#
DISCID=9c10260c
DTITLE=5 Geschwister - Folge 8 - Im ungewöhlichen Pfarrhaus
DYEAR=2006
DGENRE=Hörspiel
TTITLE0=Nächtliche Burgarbeiten
TTITLE1=Woher kommt John?
TTITLE2=Geschichtsstunde mit Rätsel
TTITLE3=Auf der Suche nach Geheimängen
TTITLE4=Beobachten und beobachtet werden
TTITLE5=Verschärfte Nachtwache
TTITLE6=Verdächtige Geländespiele
TTITLE7=Ein Brief vom Archiv
TTITLE8=Vergebliche Suche
TTITLE9=Der gefälschte Plan
TTITLE10=Unnötige Tagesausflüge
TTITLE11=Opfer der Lüge
EXTD=www.gerth.de - ArtNo. 938338 YEAR: 2006
EXTT0=
EXTT1=
EXTT2=
EXTT3=
EXTT4=
EXTT5=
EXTT6=
EXTT7=
EXTT8=
EXTT9=
EXTT10=
EXTT11=
PLAYORDER=
